<?xml version="1.0" encoding="UTF-8" standalone="no"?><svg xmlns="http://www.w3.org/2000/svg" xmlns:xlink="http://www.w3.org/1999/xlink" contentScriptType="application/ecmascript" contentStyleType="text/css" height="226px" preserveAspectRatio="none" style="width:182px;height:226px;" version="1.1" viewBox="0 0 182 226" width="182px" zoomAndPan="magnify"><defs><filter height="300%" id="fb5zez51fxel9" width="300%" x="-1" y="-1"><feGaussianBlur result="blurOut" stdDeviation="2.0"/><feColorMatrix in="blurOut" result="blurOut2" type="matrix" values="0 0 0 0 0 0 0 0 0 0 0 0 0 0 0 0 0 0 .4 0"/><feOffset dx="4.0" dy="4.0" in="blurOut2" result="blurOut3"/><feBlend in="SourceGraphic" in2="blurOut3" mode="normal"/></filter></defs><g><!--class Stage--><rect fill="#FEFECE" filter="url(#fb5zez51fxel9)" height="48" id="Stage" style="stroke: #A80036; stroke-width: 1.5;" width="69" x="54" y="8"/><ellipse cx="69" cy="24" fill="#ADD1B2" rx="11" ry="11" style="stroke: #A80036; stroke-width: 1.0;"/><path d="M71.9688,29.6406 Q71.3906,29.9375 70.75,30.0781 Q70.1094,30.2344 69.4063,30.2344 Q66.9063,30.2344 65.5781,28.5938 Q64.2656,26.9375 64.2656,23.8125 Q64.2656,20.6875 65.5781,19.0313 Q66.9063,17.375 69.4063,17.375 Q70.1094,17.375 70.75,17.5313 Q71.4063,17.6875 71.9688,17.9844 L71.9688,20.7031 Q71.3438,20.125 70.75,19.8594 Q70.1563,19.5781 69.5313,19.5781 Q68.1875,19.5781 67.5,20.6563 Q66.8125,21.7188 66.8125,23.8125 Q66.8125,25.9063 67.5,26.9844 Q68.1875,28.0469 69.5313,28.0469 Q70.1563,28.0469 70.75,27.7813 Q71.3438,27.5 71.9688,26.9219 L71.9688,29.6406 Z "/><text fill="#000000" font-family="sans-serif" font-size="12" lengthAdjust="spacingAndGlyphs" textLength="37" x="83" y="28.1543">Stage</text><line style="stroke: #A80036; stroke-width: 1.5;" x1="55" x2="122" y1="40" y2="40"/><line style="stroke: #A80036; stroke-width: 1.5;" x1="55" x2="122" y1="48" y2="48"/><!--class Timeout--><rect fill="#FEFECE" filter="url(#fb5zez51fxel9)" height="99.2188" id="Timeout" style="stroke: #A80036; stroke-width: 1.5;" width="165" x="6" y="116"/><ellipse cx="59.25" cy="132" fill="#ADD1B2" rx="11" ry="11" style="stroke: #A80036; stroke-width: 1.0;"/><path d="M62.2188,137.6406 Q61.6406,137.9375 61,138.0781 Q60.3594,138.2344 59.6563,138.2344 Q57.1563,138.2344 55.8281,136.5938 Q54.5156,134.9375 54.5156,131.8125 Q54.5156,128.6875 55.8281,127.0313 Q57.1563,125.375 59.6563,125.375 Q60.3594,125.375 61,125.5313 Q61.6563,125.6875 62.2188,125.9844 L62.2188,128.7031 Q61.5938,128.125 61,127.8594 Q60.4063,127.5781 59.7813,127.5781 Q58.4375,127.5781 57.75,128.6563 Q57.0625,129.7188 57.0625,131.8125 Q57.0625,133.9063 57.75,134.9844 Q58.4375,136.0469 59.7813,136.0469 Q60.4063,136.0469 61,135.7813 Q61.5938,135.5 62.2188,134.9219 L62.2188,137.6406 Z "/><text fill="#000000" font-family="sans-serif" font-size="12" lengthAdjust="spacingAndGlyphs" textLength="50" x="79.75" y="136.1543">Timeout</text><line style="stroke: #A80036; stroke-width: 1.5;" x1="7" x2="170" y1="148" y2="148"/><ellipse cx="17" cy="159.9023" fill="none" rx="3" ry="3" style="stroke: #038048; stroke-width: 1.0;"/><text fill="#000000" font-family="sans-serif" font-size="11" lengthAdjust="spacingAndGlyphs" textLength="73" x="26" y="162.2104">stage: Stage</text><line style="stroke: #A80036; stroke-width: 1.5;" x1="7" x2="170" y1="168.8047" y2="168.8047"/><ellipse cx="17" cy="180.707" fill="#84BE84" rx="3" ry="3" style="stroke: #038048; stroke-width: 1.0;"/><text fill="#000000" font-family="sans-serif" font-size="11" lengthAdjust="spacingAndGlyphs" textLength="139" x="26" y="183.0151">constructor:function(cfg)</text><ellipse cx="17" cy="193.5117" fill="#84BE84" rx="3" ry="3" style="stroke: #038048; stroke-width: 1.0;"/><text fill="#000000" font-family="sans-serif" font-size="11" lengthAdjust="spacingAndGlyphs" textLength="116" x="26" y="195.8198">timeout:function(ctx)</text><ellipse cx="17" cy="206.3164" fill="#84BE84" rx="3" ry="3" style="stroke: #038048; stroke-width: 1.0;"/><text fill="#000000" font-family="sans-serif" font-size="11" lengthAdjust="spacingAndGlyphs" textLength="119" x="26" y="208.6245">overdue:function(ctx)</text><!--link Stage to Timeout--><path d="M88.5,76.511 C88.5,89.141 88.5,103.012 88.5,115.9312 " fill="none" id="Stage-Timeout" style="stroke: #A80036; stroke-width: 1.0;"/><polygon fill="none" points="81.5001,76.207,88.5,56.207,95.5001,76.207,81.5001,76.207" style="stroke: #A80036; stroke-width: 1.0;"/><!--
@startuml


    Class Stage
    Class Timeout {
        +constructor:function(cfg)
        +timeout:function(ctx)
        +overdue:function(ctx)
        +stage: Stage
    }
    Stage <|- - Timeout

@enduml

PlantUML version 1.2019.06(Fri May 24 17:10:25 UTC 2019)
(GPL source distribution)
Java Runtime: OpenJDK Runtime Environment
JVM: OpenJDK 64-Bit Server VM
Java Version: 1.8.0_265-8u265-b01-0+deb9u1-b01
Operating System: Linux
OS Version: 4.19.76-linuxkit
Default Encoding: ANSI_X3.4-1968
Language: en
Country: US
--></g></svg>